<svg version="1.2" xmlns="http://www.w3.org/2000/svg" viewBox="0 0 1364 1452" width="1000" height="1065">
	<title>favicon-svg</title>
	<style>
		.s0 { fill: transparent } 
		.s1 { fill: #9746ff } 
	</style>
	<path id="Layer" class="s0" d="m-17-213h1400v2100h-1400z"/>
	<g id="34">
	</g>
	<g id="Layer">
		<path id="Layer" class="s1" d="m861.8 1163.4c-0.8-0.1-1.7-0.2-2.4-0.4-6.8 0-36 0-350.2 0.1-0.8 0.3-1.7 0.2-2.5 0.3-8.8 1.2-15.4 9-15.4 18v40.4c0 9.8 8.2 18 17.8 18.1 15.3-0.1 291.4-0.1 350.1 0 10 0 18.1-8.1 18.1-18.1v-40.4c0-9.2-6.5-16.8-15.5-18z"/>
	</g>
	<g id="Layer">
		<path id="Layer" fill-rule="evenodd" class="s1" d="m509 1128.6c-30-19-48.6-52.2-48.6-88 0-9.5-7.7-17.2-17.2-17.2-9.5 0-17.2 7.7-17.2 17.2 0 5.5 0.4 11 1.1 16.4-29.1-8.1-56.1-23.5-77.7-45.3-59.2-59.4-69.5-150.5-25.2-221.6 5-8.1 2.5-18.6-5.5-23.7-8.1-5-18.7-2.6-23.7 5.5-10.4 16.6-18.1 34.1-23.5 52.1-53.8-31.9-87.8-90-87.8-153.8 0-63.8 34.1-122 88-154 3.1 10.6 6.9 20.9 11.7 30.9 2.9 6.2 9.1 9.9 15.5 9.9 2.5 0 5-0.6 7.4-1.7 8.6-4.1 12.2-14.3 8.1-22.9-8.3-17.7-13.7-36.5-15.8-56.2-6.6-54.9 11.9-108.7 50.8-147.7 24.2-24.4 54.5-40.9 87.3-48.2-6.9 16.5-10.7 34.7-10.7 53.7 0 9.4 7.7 17.1 17.2 17.1 9.5 0 17.2-7.7 17.2-17.1 0-57.4 46.3-104.1 103.3-104.1 55.8 0 101.9 45.3 103.5 102.8 0 0.4-0.1 1-0.1 1.3v706.6c0 0.6 0.1 1.5 0.2 2.4-0.8 35-19.4 67.3-48.9 85.6h-109c-0.1 0-0.3 0-0.4 0zm-215.1-529.8c-5-8-15.6-10.6-23.6-5.5-26.1 16.2-40.1 49.6-33.4 79.6 1.9 8 8.9 13.4 16.8 13.4q1.9 0 3.8-0.4c9.3-2.1 15.1-11.3 13-20.5-3.6-15.9 4.1-34.3 17.9-42.9 8.1-5 10.5-15.6 5.5-23.7zm67.5-111.1c16.8 14.9 39.9-10.5 22.9-25.7-11.6-10.3-10.6-33.6 2-42.8 7.7-5.6 9.4-16.3 3.8-24-5.6-7.7-16.4-9.4-24.1-3.7-14.4 10.5-23.2 27.6-24.1 47-0.9 19.4 6.2 37.3 19.5 49.2zm57.8 231c-22-17.9-27.7-54.5-12.2-78.3 5.1-8 2.9-18.6-5.1-23.8-7.9-5.2-18.6-2.9-23.7 5-36.4 55.9 4.1 127.6 30.1 127.6 16.2 0 23.3-20.4 10.9-30.5zm194.7 272.1c-3.6-8.7-13.6-13-22.4-9.4-8.8 3.6-13 13.7-9.4 22.4 7.2 17.6-10.4 35.8-28.1 28.6-8.8-3.5-18.8 0.7-22.4 9.5-5 12.3 3.4 26.4 30.2 26.4 41.4 0 66.8-41.7 52.1-77.5zm-48-333.6c1.4-10.2 9.2-19.9 18.8-23.6 8.9-3.3 13.4-13.2 10-22.1-3.3-8.9-13.2-13.4-22.1-10-21.5 8.1-37.5 28-40.8 50.9-3.2 22.8 6.6 46.5 25.1 60.3 3.1 2.3 6.7 3.4 10.3 3.4 5.2 0 10.4-2.4 13.7-6.9 5.7-7.6 4.2-18.4-3.4-24.1-8.3-6.2-13.1-17.6-11.6-27.9zm-47.6 146.8c-24.3 51.5 30 104.2 80.2 80.2 8.5-4 12.2-14.3 8.1-22.9-4.1-8.6-14.4-12.2-22.9-8.1-21.8 10.3-44.5-12.8-34.3-34.5 4.1-8.6 0.4-18.8-8.2-22.9-8.6-4-18.8-0.3-22.9 8.2zm-6.8-456c4 8.6 14.3 12.3 22.9 8.2 11.2-5.3 25.4-4.7 36.2 1.4 10.9 6.2 18.7 18.2 19.9 30.6 0.9 8.9 8.4 15.5 17.1 15.5q0.9 0 1.8-0.1c9.4-1 16.3-9.4 15.3-18.9-2.4-23.5-16.6-45.3-37.1-57-20.5-11.6-46.5-12.7-67.8-2.6-8.6 4-12.3 14.3-8.3 22.9zm-35.3 182.6c23.7-10.2-4.4-32.3 14-52.3 18.2-19.8 42.5 5.8 50.7-18.1 3-9-1.8-18.8-10.7-21.8-22.8-7.8-49.1-1.1-65.4 16.7-29.1 31.7-15.5 87.2 11.4 75.5zm52.7 444c9.4-0.7 16.5-9 15.8-18.4-0.7-9.5-9.1-16.5-18.4-15.9-18 1.4-36.5-7.2-47.1-21.9-10.6-14.7-12.9-35.1-5.9-51.9 3.6-8.7-0.6-18.8-9.3-22.4-8.9-3.7-18.8 0.5-22.5 9.2-11.4 27.6-7.6 61 9.8 85.1 17.7 24.6 48.4 38.4 77.6 36.2z"/>
	</g>
	<g id="Layer">
		<path id="Layer" class="s1" d="m600.3 1407.3c0 19.8 15.9 35.9 35.5 35.9h96.9c19.6 0 35.5-16.1 35.5-35.9v-22.7h-167.9z"/>
	</g>
	<g id="Layer">
		<path id="Layer" class="s1" d="m827.5 1273.8h-286.2c-9 1-15.9 8.3-15.9 17.8v40.3c0 10 8 18.2 17.9 18.2 232-0.3 284.5 0 282.2 0 9.9 0 18-8.2 18-18.2v-40.3c0-9.3-7.1-16.8-16-17.8z"/>
	</g>
	<g id="Layer">
		<path id="Layer" class="s1" d="m509.2 1239.8q-0.1 0-0.1 0c-1 0-1.1 0 0.1 0z"/>
	</g>
	<g id="Layer">
		<path id="Layer" class="s1" d="m669.6 1128.4h28.9c-5.5-6.7-10.3-13.9-14.4-21.5-4.2 7.6-9 14.8-14.5 21.5z"/>
	</g>
	<g id="Layer">
		<path id="Layer" fill-rule="evenodd" class="s1" d="m1184.4 670.2c0 63.8-33.9 121.9-87.7 153.8-5.4-18-13.2-35.5-23.5-52.1-5-8.1-15.7-10.5-23.7-5.5-8 5.1-10.5 15.6-5.5 23.7 44.3 71.1 34 162.2-25.2 221.6-21.6 21.7-48.5 37.2-77.5 45.3 0.6-5.4 1.1-10.9 1.1-16.4 0-9.5-7.7-17.2-17.2-17.2-9.5 0-17.2 7.7-17.2 17.2 0 11.7-2.2 23.1-5.9 33.8q0 0.1-0.1 0.2c-7.7 22.1-22.6 41.3-42.9 54-0.1 0-0.3 0-0.4 0h-109c-29.7-18.4-48.3-50.9-48.7-86.1 0-0.6 0-708.5 0-708.5 0-0.1 0-1.2 0-1.9 0.8-56.3 47.2-102.2 103.4-102.2 57.1 0 103.6 46.7 103.6 104.1 0 9.4 7.7 17.1 17.2 17.1 9.5 0 17.2-7.7 17.2-17.1 0-19-3.9-37.1-10.8-53.6 32.8 7.2 63 23.7 87.2 48.1 38.8 39 57.4 92.8 50.8 147.9-2.1 19.5-7.5 38.3-15.9 56-4 8.6-0.4 18.8 8.2 22.9 2.4 1.1 4.9 1.7 7.4 1.7 6.4 0 12.6-3.7 15.5-9.9 4.8-10 8.6-20.3 11.7-30.9 53.9 32 87.9 90.2 87.9 154zm-346.4-231.8c-8.9 3-13.8 12.8-10.7 21.8 3.1 9 12.8 13.8 21.8 10.7 9.8-3.3 21.9-0.2 28.9 7.4 7.1 7.7 9.2 20.2 5 29.7-3.7 8.8 0.3 18.9 9 22.6 2.2 1 4.5 1.4 6.8 1.4 6.7 0 13-3.8 15.8-10.3 9.5-22.1 5-48.9-11.2-66.6-16.3-17.8-42.6-24.5-65.4-16.7zm-35.7 218.8c1.5 10.3-3.3 21.7-11.6 27.9-7.6 5.7-9.1 16.5-3.4 24.1 3.3 4.5 8.5 6.9 13.7 6.9 3.6 0 7.2-1.1 10.3-3.4 18.5-13.8 28.3-37.5 25-60.3-3.2-22.9-19.2-42.8-40.7-50.9-8.9-3.4-18.8 1.1-22.2 10-3.3 8.9 1.2 18.8 10.1 22.1 9.6 3.7 17.4 13.4 18.8 23.6zm-40.7 204.1c-4.1 8.6-0.4 18.9 8.1 22.9 8.1 3.9 16.8 5.7 25.5 5.7 15.7 0 31.5-6.1 42.8-17.5 17.7-17.7 22.5-45.8 11.9-68.4-4.1-8.6-14.3-12.3-22.9-8.2-8.6 4.1-12.3 14.3-8.2 22.9 4.4 9.4 2.2 22.1-5.1 29.5-7.3 7.3-19.8 9.4-29.2 5-8.5-4.1-18.8-0.5-22.9 8.1zm-2.8-457.7q0.9 0.1 1.8 0.1c8.7 0 16.1-6.6 17-15.5 1.3-12.4 9.1-24.4 20-30.6 10.7-6.1 24.9-6.7 36.2-1.4 8.6 4.1 18.9 0.3 22.9-8.2 4-8.6 0.3-18.9-8.3-22.9-21.3-10.1-47.3-9-67.8 2.6-20.5 11.7-34.7 33.5-37.2 57-0.9 9.5 6 17.9 15.4 18.9zm77.8 638.3c-3.6-8.8-13.6-13.1-22.4-9.5-7.7 3.1-17.6 1.1-23.4-4.8-5.8-5.9-7.8-16.1-4.7-23.8 3.6-8.8-0.6-18.8-9.4-22.4-8.8-3.6-18.9 0.6-22.4 9.4-8.5 20.6-3.6 45.1 12 60.9 10.7 10.8 25.3 16.6 40.1 16.6 7 0 14-1.4 20.7-4 8.8-3.6 13-13.6 9.5-22.4zm90.1-188.6c-3.7-8.7-13.7-12.9-22.5-9.2-8.8 3.6-12.9 13.7-9.3 22.4 7 16.8 4.7 37.1-6 51.9-10.5 14.7-29 23.4-47 21.9-9.3-0.7-17.7 6.4-18.4 15.9-0.7 9.4 6.4 17.7 15.8 18.4q3.1 0.2 6.2 0.2c27.7 0 55.2-13.8 71.3-36.3 17.5-24.2 21.3-57.6 9.9-85.2zm63.3-231.7c-5.1-7.9-15.8-10.2-23.7-5-8 5.2-10.2 15.8-5.1 23.8 15.5 23.8 9.8 60.4-12.2 78.3-7.3 6-8.4 16.8-2.5 24.2 3.4 4.2 8.4 6.3 13.4 6.3 3.8 0 7.6-1.2 10.8-3.8 36-29.3 44.7-84.8 19.3-123.8zm36.3-183.1c-0.9-19.4-9.7-36.5-24.1-47-7.7-5.7-18.5-4-24.1 3.7-5.6 7.7-3.9 18.4 3.8 24 5.9 4.3 9.6 12.1 10.1 20.9 0.4 8.9-2.6 17-8.1 21.9-7.1 6.3-7.7 17.2-1.4 24.3 3.4 3.8 8.1 5.7 12.9 5.7 4 0 8.1-1.4 11.4-4.3 13.3-11.9 20.4-29.8 19.5-49.2zm71.6 154.8c-8-5.1-18.6-2.5-23.6 5.5-5 8.1-2.6 18.7 5.5 23.7 13.8 8.6 21.5 27 17.9 42.9-2.1 9.2 3.7 18.4 13 20.5q1.9 0.4 3.8 0.4c7.8 0 14.9-5.4 16.7-13.4 6.8-30-7.2-63.4-33.3-79.6z"/>
	</g>
	<g id="Layer">
		<path id="Layer" class="s1" d="m684.3 112.2c9.5 0 17.2-7.7 17.2-17.2v-65.8c0-9.4-7.7-17.1-17.2-17.1-9.5 0-17.2 7.7-17.2 17.1v65.8c0 9.5 7.7 17.2 17.2 17.2z"/>
	</g>
	<g id="Layer">
		<path id="Layer" class="s1" d="m374.3 183c4.8 8.3 15.3 11.1 23.5 6.4 8.2-4.8 11.1-15.3 6.3-23.5l-32.7-56.9c-4.7-8.3-15.2-11.1-23.4-6.4-8.3 4.7-11.1 15.3-6.4 23.5z"/>
	</g>
	<g id="Layer">
		<path id="Layer" class="s1" d="m107.3 373.1l56.7 32.8c8.1 4.8 18.7 2.1 23.5-6.2 4.8-8.2 2-18.7-6.3-23.5l-56.6-32.8c-8.2-4.8-18.7-2-23.5 6.2-4.8 8.2-2 18.7 6.2 23.5z"/>
	</g>
	<g id="Layer">
		<path id="Layer" class="s1" d="m110.9 687.7c0-9.4-7.7-17.1-17.2-17.1h-65.4c-9.5 0-17.2 7.7-17.2 17.1 0 9.5 7.7 17.2 17.2 17.2h65.4c9.5 0 17.2-7.7 17.2-17.2z"/>
	</g>
	<g id="Layer">
		<path id="Layer" class="s1" d="m164 969.5l-56.7 32.9c-8.2 4.7-11 15.2-6.2 23.5 4.8 8.2 15.4 10.9 23.5 6.2l56.6-32.9c8.3-4.7 11.1-15.2 6.3-23.4-4.8-8.3-15.3-11.1-23.5-6.3z"/>
	</g>
	<g id="Layer">
		<path id="Layer" class="s1" d="m1261 1002.4l-56.6-32.9c-8.2-4.8-18.7-2-23.5 6.3-4.8 8.2-2 18.7 6.2 23.4l56.7 32.9c8.1 4.7 18.7 2.1 23.5-6.2 4.8-8.3 2-18.8-6.3-23.5z"/>
	</g>
	<g id="Layer">
		<path id="Layer" class="s1" d="m1340.1 670.6h-65.5c-9.5 0-17.2 7.7-17.2 17.1 0 9.5 7.7 17.2 17.2 17.2h65.5c9.5 0 17.2-7.7 17.2-17.2 0-9.4-7.7-17.1-17.2-17.1z"/>
	</g>
	<g id="Layer">
		<path id="Layer" class="s1" d="m1204.4 405.9l56.6-32.8c8.3-4.8 11.1-15.3 6.3-23.5-4.8-8.2-15.3-11-23.5-6.2l-56.7 32.8c-8.2 4.8-11 15.3-6.2 23.5 4.8 8.3 15.4 11 23.5 6.2z"/>
	</g>
	<g id="Layer">
		<path id="Layer" class="s1" d="m970.5 189.4c8.3 4.7 18.8 1.9 23.5-6.4l32.7-56.9c4.7-8.2 1.9-18.8-6.3-23.5-8.2-4.7-18.8-1.9-23.5 6.4l-32.7 56.9c-4.7 8.2-1.9 18.7 6.3 23.5z"/>
	</g>
</svg>