<?xml version="1.0" encoding="UTF-8" standalone="no" ?>
<!DOCTYPE svg PUBLIC "-//W3C//DTD SVG 1.1//EN" "http://www.w3.org/Graphics/SVG/1.1/DTD/svg11.dtd">
<svg xmlns="http://www.w3.org/2000/svg" xmlns:xlink="http://www.w3.org/1999/xlink" version="1.1" width="1400" height="2100" viewBox="0 0 1400 2100" xml:space="preserve">
<desc>Created with Fabric.js 5.2.4</desc>
<defs>
</defs>
<rect x="0" y="0" width="100%" height="100%" fill="transparent"></rect>
<g transform="matrix(1 0 0 1 700 1050)" id="b3194080-d878-4863-97d2-c4f76c947d4b"  >
<rect style="stroke: none; stroke-width: 1; stroke-dasharray: none; stroke-linecap: butt; stroke-dashoffset: 0; stroke-linejoin: miter; stroke-miterlimit: 4; fill: rgb(255,255,255); fill-rule: nonzero; opacity: 1; visibility: hidden;" vector-effect="non-scaling-stroke"  x="-700" y="-1050" rx="0" ry="0" width="1400" height="2100" />
</g>
<g transform="matrix(0 0 0 0 0 0)" id="fb8272c9-9d59-4d64-9e7a-d74df879d6b3"  >
</g>
<g transform="matrix(1.17 0 0 1.17 702 1051.05)" id="34"  >
<rect style="stroke: none; stroke-width: 1; stroke-dasharray: none; stroke-linecap: butt; stroke-dashoffset: 0; stroke-linejoin: miter; stroke-miterlimit: 4; fill: rgb(255,255,255); fill-rule: nonzero; opacity: 1; visibility: hidden;" vector-effect="non-scaling-stroke"  x="-600" y="-314" rx="0" ry="0" width="1200" height="628" />
</g>
<g transform="matrix(22.92 0 0 22.92 701.22 1414.35)"  >
<path style="stroke: none; stroke-width: 1; stroke-dasharray: none; stroke-linecap: butt; stroke-dashoffset: 0; stroke-linejoin: miter; stroke-miterlimit: 4; fill: rgb(151 71 255); fill-rule: nonzero; opacity: 1;" vector-effect="non-scaling-stroke"  transform=" translate(-34.5, -55.18)" d="M 42.24609 53.52539 C 42.210930000000005 53.521480000000004 42.17578 53.513670000000005 42.141600000000004 53.50488 C 41.848020000000005 53.50488 40.573910000000005 53.50537 26.863770000000002 53.51269 C 26.830080000000002 53.52246 26.788090000000004 53.5205 26.75391 53.52539 C 26.37159 53.57715 26.0835 53.915040000000005 26.0835 54.31152 L 26.0835 56.07226 C 26.0835 56.49951 26.438660000000002 56.85888 26.8595 56.86132 C 27.527160000000002 56.85693 39.57233 56.85888 42.133790000000005 56.8623 C 42.569340000000004 56.8623 42.92383 56.50781 42.92383 56.07226 L 42.92383 54.31152 C 42.92383 53.9082 42.63867 53.57715 42.24609 53.52539 z" stroke-linecap="round" />
</g>
<g transform="matrix(22.92 0 0 22.92 442.43 892.32)"  >
<path style="stroke: none; stroke-width: 1; stroke-dasharray: none; stroke-linecap: butt; stroke-dashoffset: 0; stroke-linejoin: miter; stroke-miterlimit: 4; fill: rgb(151 71 255); fill-rule: nonzero; opacity: 1;" vector-effect="non-scaling-stroke"  transform=" translate(-23.2, -32.41)" d="M 26.86377 52.0127 L 31.620849999999997 52.0127 C 32.90692 51.21412 33.719359999999995 49.803720000000006 33.75183 48.275400000000005 C 33.74774 48.23707 33.743649999999995 48.198010000000004 33.743649999999995 48.17188 L 33.743649999999995 17.3418 C 33.743649999999995 17.32862 33.74663999999999 17.30591 33.7478 17.288819999999998 C 33.676939999999995 14.776609999999998 31.665519999999997 12.801759999999998 29.23388 12.801759999999998 C 26.747059999999998 12.801759999999998 24.72363 14.838869999999998 24.72363 17.3418 C 24.72363 17.75586 24.38769 18.0918 23.97363 18.0918 C 23.55957 18.0918 23.22363 17.75586 23.22363 17.3418 C 23.22363 16.51294 23.39117 15.72266 23.69317 15.00293 C 22.26006 15.318359999999998 20.94024 16.03955 19.881339999999998 17.10352 C 18.187489999999997 18.80469 17.37988 21.1543 17.6665 23.54981 C 17.75976 24.407230000000002 17.992179999999998 25.22852 18.35791 26.00001 C 18.53516 26.37403 18.375980000000002 26.8213 18.00146 26.99903 C 17.897940000000002 27.04786 17.78857 27.0713 17.680660000000003 27.0713 C 17.399900000000002 27.0713 17.130860000000002 26.9131 17.002440000000004 26.642590000000002 C 16.795160000000003 26.205820000000003 16.626710000000003 25.754410000000004 16.491940000000003 25.293470000000003 C 14.139710000000003 26.690200000000004 12.655270000000003 29.230480000000004 12.655270000000003 32.012710000000006 C 12.655270000000003 34.79518 14.136040000000003 37.330580000000005 16.48382 38.720470000000006 C 16.719170000000002 37.93751 17.05743 37.173590000000004 17.508300000000002 36.450210000000006 C 17.728510000000004 36.09767000000001 18.19189 35.99025 18.541500000000003 36.20998000000001 C 18.893060000000002 36.42971000000001 19.000480000000003 36.89162000000001 18.781730000000003 37.24318000000001 C 16.848620000000004 40.34474000000001 17.300770000000004 44.32033000000001 19.880850000000002 46.911150000000006 C 20.826410000000003 47.86086000000001 22.005060000000004 48.53517000000001 23.271660000000004 48.88796000000001 C 23.243340000000003 48.651630000000004 23.223630000000004 48.41311 23.223630000000004 48.17190000000001 C 23.223630000000004 47.75784000000001 23.559570000000004 47.42190000000001 23.973630000000004 47.42190000000001 C 24.387690000000003 47.42190000000001 24.723630000000004 47.75784000000001 24.723630000000004 48.17190000000001 C 24.723630000000004 49.735380000000006 25.536070000000002 51.183620000000005 26.847710000000003 52.01321000000001 C 26.85236 52.01318 26.85938 52.0127 26.86377 52.0127 z M 17.22119 29.93066 C 16.6206 30.30468 16.28467 31.10839 16.44043 31.80078 C 16.53125 32.20508 16.27686 32.60547 15.87256 32.69629 C 15.81738 32.70899 15.76221 32.714839999999995 15.70801 32.714839999999995 C 15.364749999999999 32.714839999999995 15.05518 32.47754 14.97656 32.128899999999994 C 14.683589999999999 30.822259999999993 15.294429999999998 29.362299999999994 16.43017 28.657219999999995 C 16.78076 28.436519999999994 17.244130000000002 28.546869999999995 17.462880000000002 28.898429999999994 C 17.68115 29.25 17.57324 29.71289 17.22119 29.93066 z M 19.55518 21.90234 C 19.59571 21.05859 19.97998 20.31054 20.60889 19.85058 C 20.94239 19.60546 21.41211 19.6787 21.65674 20.01367 C 21.90137 20.34765 21.828129999999998 20.81738 21.49365 21.06152 C 20.94409 21.46404 20.898339999999997 22.477770000000003 21.40429 22.92773 C 22.14883 23.59006 21.13872 24.70016 20.40722 24.04882 C 19.82471 23.53027 19.51416 22.74805 19.55518 21.90234 z M 22.45264 35.45996 C 21.317359999999997 35.45996 19.55097 32.329710000000006 21.13721 29.892580000000002 C 21.3628 29.54492 21.828129999999998 29.448240000000002 22.17481 29.672850000000004 C 22.52198 29.899410000000003 22.62012 30.364260000000005 22.39405 30.710940000000004 C 21.71778 31.750000000000004 21.96632 33.346680000000006 22.92676 34.127930000000006 C 23.46955 34.57076 23.15882 35.45996 22.45264 35.45996 z M 29.15039 49.37988 C 27.979860000000002 49.37988 27.614720000000002 48.76676 27.83301 48.22754 C 27.988770000000002 47.84375 28.42676 47.66016 28.80957 47.81445 C 29.580280000000002 48.12811 30.35003 47.33518 30.03613 46.56836 C 29.8789 46.18555 30.0625 45.74707 30.4458 45.589839999999995 C 30.83008 45.43261 31.26758 45.618159999999996 31.42383 45.99999999999999 C 32.06355 47.56075 30.95533 49.37988 29.15039 49.37988 z M 29.83301 32.66309 C 30.164550000000002 32.911139999999996 30.23242 33.38086 29.98438 33.712889999999994 C 29.837410000000002 33.91016 29.61182 34.01367 29.38331 34.01367 C 29.22706 34.01367 29.06935 33.964839999999995 28.93458 33.864259999999994 C 28.13038 33.262699999999995 27.70216 32.231449999999995 27.84278 31.234379999999994 C 27.983890000000002 30.238289999999996 28.68165 29.366219999999995 29.621100000000002 29.012699999999995 C 30.007820000000002 28.868169999999996 30.440920000000002 29.062499999999996 30.587410000000002 29.451179999999994 C 30.732920000000004 29.838879999999993 30.53712 30.270519999999994 30.149420000000003 30.416999999999994 C 29.729010000000002 30.575199999999995 29.391120000000004 30.998049999999996 29.32813 31.445319999999995 C 29.26465 31.89258 29.47217 32.39355 29.83301 32.66309 z M 28.25195 37.49219 C 28.62646 37.66895 28.78662 38.11621 28.60986 38.49121 C 28.16355 39.4378 29.15576 40.444810000000004 30.10351 39.99707 C 30.47753 39.819340000000004 30.92529 39.97656 31.10351 40.35156 C 31.28173 40.72461 31.12304 41.17285 30.74902 41.35058 C 28.55987 42.39623 26.19255 40.09699 27.253410000000002 37.85058 C 27.43066 37.47754 27.87793 37.31641 28.25195 37.49219 z M 27.31543 16.95508 C 28.24756 16.515629999999998 29.38232 16.56055 30.27637 17.06934 C 31.17042 17.57813 31.79102 18.53125 31.896 19.55664 C 31.93799 19.96875 31.63819 20.336910000000003 31.226570000000002 20.37891 C 31.200200000000002 20.38184 31.17432 20.382820000000002 31.148930000000004 20.382820000000002 C 30.769050000000004 20.382820000000002 30.443360000000002 20.095710000000004 30.403810000000004 19.708990000000004 C 30.348150000000004 19.166020000000003 30.007330000000003 18.642580000000002 29.535160000000005 18.374030000000005 C 29.063970000000005 18.105480000000004 28.443850000000005 18.081060000000004 27.953130000000005 18.312510000000003 C 27.578130000000005 18.490240000000004 27.131350000000005 18.328140000000005 26.955570000000005 17.95313 C 26.7793 17.57813 26.94043 17.13086 27.31543 16.95508 z M 24.91895 22.62695 C 25.63086 21.85156 26.775399999999998 21.55957 27.76905 21.897460000000002 C 28.16114 22.031250000000004 28.37061 22.457030000000003 28.23731 22.849610000000002 C 27.88172 23.894250000000003 26.818170000000002 22.77492 26.02393 23.6416 C 25.2241 24.51159 26.44852 25.47709 25.41504 25.92285 C 24.24101 26.43278 23.65011 24.01019 24.91895 22.62695 z M 24.33008 43.71582 C 23.571289999999998 42.66211 23.402829999999998 41.204100000000004 23.90137 40.00293 C 24.06055 39.61914 24.4961 39.4375 24.88184 39.59766 C 25.26416 39.75586 25.445800000000002 40.195319999999995 25.287110000000002 40.577149999999996 C 24.98291 41.309569999999994 25.08545 42.19824 25.54785 42.83985 C 26.00879 43.48243 26.81396 43.85938 27.59912 43.79786 C 28.00537 43.76856 28.37207 44.07618 28.40381 44.48927 C 28.43506 44.902359999999994 28.12549 45.26271 27.7124 45.29396 C 26.43937 45.39081 25.10155 44.78885 24.33008 43.71582 z" stroke-linecap="round" />
</g>
<g transform="matrix(22.92 0 0 22.92 701.23 1626.88)"  >
<path style="stroke: none; stroke-width: 1; stroke-dasharray: none; stroke-linecap: butt; stroke-dashoffset: 0; stroke-linejoin: miter; stroke-miterlimit: 4; fill: rgb(151 71 255); fill-rule: nonzero; opacity: 1;" vector-effect="non-scaling-stroke"  transform=" translate(-34.5, -64.47)" d="M 30.83691 64.18457 C 30.83691 65.04785 31.53173 65.75 32.38525 65.75 L 36.61474 65.75 C 37.46826 65.75 38.16308 65.04785 38.16308 64.18457 L 38.16308 63.19042999999999 L 30.83691 63.19042999999999 L 30.83691 64.18457 z" stroke-linecap="round" />
</g>
<g transform="matrix(22.92 0 0 22.92 701.34 1525.03)"  >
<path style="stroke: none; stroke-width: 1; stroke-dasharray: none; stroke-linecap: butt; stroke-dashoffset: 0; stroke-linejoin: miter; stroke-miterlimit: 4; fill: rgb(151 71 255); fill-rule: nonzero; opacity: 1;" vector-effect="non-scaling-stroke"  transform=" translate(-34.5, -60.03)" d="M 40.7453 58.3623 L 28.2597 58.3623 C 27.86639 58.407469999999996 27.56543 58.725089999999994 27.56543 59.13867 L 27.56543 60.897459999999995 C 27.56543 61.334959999999995 27.9165 61.69042999999999 28.347659999999998 61.69042999999999 C 38.46906 61.676269999999995 40.75971 61.689449999999994 40.65967 61.69042999999999 C 41.09131 61.69042999999999 41.44238 61.334959999999995 41.44238 60.897459999999995 L 41.44238 59.13867 C 41.44238 58.73193 41.13477 58.40771 40.7453 58.3623 z" stroke-linecap="round" />
</g>
<g transform="matrix(22.92 0 0 22.92 525.84 1452.76)"  >
<path style="stroke: none; stroke-width: 1; stroke-dasharray: none; stroke-linecap: butt; stroke-dashoffset: 0; stroke-linejoin: miter; stroke-miterlimit: 4; fill: rgb(151 71 255); fill-rule: nonzero; opacity: 1;" vector-effect="non-scaling-stroke"  transform=" translate(-26.85, -56.86)" d="M 26.86377 56.8623 C 26.86224 56.8623 26.86102 56.86132 26.859499999999997 56.86132 C 26.81885 56.86157 26.81519 56.86206 26.86377 56.8623 z" stroke-linecap="round" />
</g>
<g transform="matrix(22.92 0 0 22.92 701.1 1330.76)"  >
<path style="stroke: none; stroke-width: 1; stroke-dasharray: none; stroke-linecap: butt; stroke-dashoffset: 0; stroke-linejoin: miter; stroke-miterlimit: 4; fill: rgb(151 71 255); fill-rule: nonzero; opacity: 1;" vector-effect="non-scaling-stroke"  transform=" translate(-34.5, -51.55)" d="M 33.86688 52.0127 L 35.129940000000005 52.0127 C 34.890010000000004 51.7212 34.68054000000001 51.408210000000004 34.499570000000006 51.07764 C 34.31787 51.40845 34.10718 51.72119 33.86688 52.0127 z" stroke-linecap="round" />
</g>
<g transform="matrix(22.92 0 0 22.92 959.76 892.32)"  >
<path style="stroke: none; stroke-width: 1; stroke-dasharray: none; stroke-linecap: butt; stroke-dashoffset: 0; stroke-linejoin: miter; stroke-miterlimit: 4; fill: rgb(151 71 255); fill-rule: nonzero; opacity: 1;" vector-effect="non-scaling-stroke"  transform=" translate(-45.8, -32.41)" d="M 52.50818 25.29346 C 52.37341 25.75391 52.20477 26.205569999999998 51.99756 26.64258 C 51.86914 26.91309 51.6001 27.071289999999998 51.31934 27.071289999999998 C 51.21143 27.071289999999998 51.10205 27.047849999999997 50.99854 26.999019999999998 C 50.62403 26.821289999999998 50.46485 26.374019999999998 50.642089999999996 25.999999999999996 C 51.00781 25.228519999999996 51.24023 24.407229999999995 51.333009999999994 23.557619999999996 C 51.62011999999999 21.154299999999996 50.81249999999999 18.804689999999997 49.119139999999994 17.103519999999996 C 48.06157999999999 16.041019999999996 46.74426 15.320319999999995 45.3139 15.004149999999996 C 45.61609 15.723629999999996 45.78369 16.513429999999996 45.78369 17.341799999999996 C 45.78369 17.755859999999995 45.44775 18.091799999999996 45.03369 18.091799999999996 C 44.61963 18.091799999999996 44.28369 17.755859999999995 44.28369 17.341799999999996 C 44.28369 14.838869999999996 42.25586 12.801759999999994 39.76367 12.801759999999994 C 37.310539999999996 12.801759999999994 35.2876 14.802739999999995 35.2539 17.262699999999995 C 35.2539 17.290529999999997 35.2539 17.338869999999996 35.2539 17.341799999999996 L 35.2539 48.171879999999994 C 35.2539 48.17504999999999 35.2539 48.22827999999999 35.2539 48.25391 C 35.269890000000004 49.78955 36.081900000000005 51.20899 37.37664 52.012699999999995 L 42.13378 52.012699999999995 C 42.13848 52.012699999999995 42.14586 52.013189999999994 42.15075 52.013189999999994 C 43.035090000000004 51.45728 43.68755 50.62208 44.022940000000006 49.65722999999999 C 44.02373000000001 49.65453999999999 44.024950000000004 49.65185999999999 44.02581000000001 49.64916999999999 C 44.18816000000001 49.179199999999994 44.283680000000004 48.68310999999999 44.283680000000004 48.17187999999999 C 44.283680000000004 47.75781999999999 44.619620000000005 47.42187999999999 45.033680000000004 47.42187999999999 C 45.44774 47.42187999999999 45.783680000000004 47.75781999999999 45.783680000000004 48.17187999999999 C 45.783680000000004 48.41259999999999 45.76384 48.65063999999999 45.73565000000001 48.886479999999985 C 46.999500000000005 48.53320999999998 48.175160000000005 47.85913999999998 49.11865000000001 46.91113999999998 C 51.69922000000001 44.32031999999998 52.15136000000001 40.344729999999984 50.21826000000001 37.24316999999998 C 49.99951000000001 36.89160999999998 50.106930000000006 36.42968999999998 50.458490000000005 36.20996999999998 C 50.8081 35.99023999999998 51.271480000000004 36.09766999999998 51.491690000000006 36.450199999999974 C 51.94256000000001 37.173589999999976 52.28081 37.93749999999997 52.51617 38.720459999999974 C 54.86395 37.33056999999997 56.34472 34.79516999999998 56.34472 32.012699999999974 C 56.34473 29.23047 54.86029 26.69043 52.50818 25.29346 z M 44.08105 22.62695 C 44.79052 23.40039 44.9873 24.56738 44.5708 25.532220000000002 C 44.44824 25.815420000000003 44.17236 25.984370000000002 43.88184 25.984370000000002 C 43.78272 25.984370000000002 43.681639999999994 25.964840000000002 43.584959999999995 25.92285 C 43.204589999999996 25.75879 43.029779999999995 25.31738 43.19385 24.93652 C 43.37403 24.520500000000002 43.28223 23.974610000000002 42.97559 23.640620000000002 C 42.67041 23.30761 42.139649999999996 23.171870000000002 41.71436 23.317380000000004 C 41.322269999999996 23.451170000000005 40.89649 23.241210000000002 40.7627 22.849610000000002 C 40.629400000000004 22.457030000000003 40.83887 22.031250000000004 41.23096 21.897460000000002 C 42.22559 21.55859 43.36963 21.85156 44.08105 22.62695 z M 38.85059 30.41699 C 38.462889999999994 30.270509999999998 38.267089999999996 29.838859999999997 38.4126 29.451169999999998 C 38.5586 29.062499999999996 38.991699999999994 28.867189999999997 39.37891 29.01269 C 40.31836 29.36621 41.01612 30.23828 41.15723 31.23437 C 41.29786 32.23144 40.86963 33.26269 40.06543 33.86425 C 39.930659999999996 33.964839999999995 39.77295 34.01366 39.6167 34.01366 C 39.38818 34.01366 39.163090000000004 33.91014 39.01563 33.71288 C 38.76758 33.380849999999995 38.83545 32.91112 39.167 32.66308 C 39.527840000000005 32.39355 39.73536 31.89257 39.67188 31.44531 C 39.60889 30.99805 39.271 30.5752 38.85059 30.41699 z M 38.89697 39.99707 C 39.3042 40.18945 39.849610000000006 40.09473 40.16845 39.77637 C 40.48876 39.45508 40.58447 38.90235 40.39062 38.49024 C 40.21386 38.11622 40.37451 37.66895 40.74902 37.49219 C 41.12451 37.314460000000004 41.571290000000005 37.47656 41.74707 37.85157 C 42.21191 38.83692 41.99951 40.063480000000006 41.23096 40.834970000000006 C 40.73438 41.333020000000005 40.04883 41.59864 39.36084 41.59864 C 38.98145 41.59864 38.60107 41.517590000000006 38.25146 41.350590000000004 C 37.87744 41.17286000000001 37.71875 40.724610000000006 37.89746 40.350590000000004 C 38.07568 39.97656 38.52344 39.81836 38.89697 39.99707 z M 37.104 19.55664 C 37.20898 18.53125 37.829589999999996 17.578120000000002 38.72363 17.06934 C 39.61767 16.56153 40.75293 16.51661 41.68457 16.95508 C 42.05957 17.13086 42.2207 17.578129999999998 42.04443 17.953129999999998 C 41.868649999999995 18.32715 41.42041 18.489259999999998 41.04687 18.31251 C 40.55517 18.08204 39.93457 18.10646 39.464839999999995 18.37403 C 38.99267 18.642580000000002 38.651849999999996 19.16602 38.59618999999999 19.70899 C 38.556639999999994 20.09571 38.230959999999996 20.38282 37.85106999999999 20.38282 C 37.82518999999999 20.38282 37.79979999999999 20.38184 37.77342999999999 20.378909999999998 C 37.36182 20.33691 37.06201 19.96875 37.104 19.55664 z M 40.75391 49.20508 C 40.46338 49.32227 40.15625 49.37988 39.84961 49.37988 C 39.20557 49.37988 38.56641 49.12793 38.10205 48.6582 C 37.41943 47.96875 37.20801 46.90039 37.57568 46 C 37.73193 45.61719 38.16992 45.43262 38.553709999999995 45.58984 C 38.937009999999994 45.74707 39.121089999999995 46.18457 38.964349999999996 46.568360000000006 C 38.82763 46.90234 38.915029999999994 47.347660000000005 39.16844999999999 47.60352 C 39.42479999999999 47.86231 39.85350999999999 47.95118 40.190419999999996 47.814460000000004 C 40.57469999999999 47.65919 41.010729999999995 47.844730000000006 41.166979999999995 48.22755 C 41.32275 48.6123 41.1377 49.04883 40.75391 49.20508 z M 44.66943 43.7168 C 43.96289 44.69922 42.76416 45.30371 41.55761 45.30371 C 41.467769999999994 45.30371 41.37743 45.30078 41.287589999999994 45.29394 C 40.8745 45.26269 40.56493 44.90234 40.59618 44.48925 C 40.627919999999996 44.07616 40.99364 43.76659 41.40087 43.79784 C 42.18407 43.86034 42.99071 43.48241 43.45214 42.84081 C 43.91503 42.19726 44.01757 41.30956 43.71337 40.578109999999995 C 43.55419 40.195299999999996 43.73534 39.75682 44.11767 39.59764 C 44.500969999999995 39.43846 44.93994 39.6201 45.098139999999994 40.00194 C 45.59766 41.2041 45.42969 42.66211 44.66943 43.7168 z M 47.02051 35.29199 C 46.881350000000005 35.40527 46.71387 35.459959999999995 46.54737 35.459959999999995 C 46.3296 35.459959999999995 46.11329 35.36523 45.96534 35.183589999999995 C 45.70362 34.8623 45.752449999999996 34.38963999999999 46.073249999999994 34.12792999999999 C 47.033699999999996 33.34667999999999 47.28222999999999 31.749999999999993 46.605959999999996 30.710939999999994 C 46.379889999999996 30.364259999999994 46.47803 29.899419999999992 46.825199999999995 29.672849999999993 C 47.171879999999994 29.448239999999995 47.63672 29.544919999999994 47.86279999999999 29.89257999999999 C 48.96875 31.5918 48.59082 34.01367 47.02051 35.29199 z M 48.59277 24.04883 C 48.45019 24.17578 48.27197 24.23828 48.09472 24.23828 C 47.88769 24.23828 47.682120000000005 24.15332 47.53417 23.9873 C 47.25878 23.67773 47.286120000000004 23.203120000000002 47.595690000000005 22.92773 C 47.83397000000001 22.71582 47.965320000000006 22.359370000000002 47.946760000000005 21.9746 C 47.92821000000001 21.590809999999998 47.763650000000005 21.24999 47.506330000000005 21.06151 C 47.17235000000001 20.817369999999997 47.09910000000001 20.34764 47.34373000000001 20.013659999999998 C 47.58836000000001 19.6787 48.05711000000001 19.605459999999997 48.39207000000001 19.850569999999998 C 49.02049000000001 20.310529999999996 49.404280000000014 21.05858 49.44480000000001 21.903299999999998 C 49.48584 22.74805 49.17529 23.53027 48.59277 24.04883 z M 54.02344 32.12891 C 53.94483 32.47754 53.63526 32.71485 53.29199 32.71485 C 53.23779 32.71485 53.18261 32.70899 53.12744 32.6963 C 52.72314 32.60548 52.46875 32.20509 52.55957 31.80079 C 52.71533 31.10841 52.37939 30.3047 51.77881 29.93067 C 51.42725 29.71192 51.31934 29.25001 51.5376 28.89844 C 51.75684 28.54688 52.21924 28.43653 52.5708 28.657230000000002 C 53.70557 29.3623 54.31641 30.82227 54.02344 32.12891 z" stroke-linecap="round" />
</g>
<g transform="matrix(22.92 0 0 22.92 701.26 275.02)"  >
<path style="stroke: none; stroke-width: 1; stroke-dasharray: none; stroke-linecap: butt; stroke-dashoffset: 0; stroke-linejoin: miter; stroke-miterlimit: 4; fill: rgb(151 71 255); fill-rule: nonzero; opacity: 1;" vector-effect="non-scaling-stroke"  transform=" translate(-34.5, -5.43)" d="M 34.5 7.61719 C 34.91406 7.61719 35.25 7.28125 35.25 6.86719 L 35.25 4 C 35.25 3.58594 34.91406 3.25 34.5 3.25 C 34.08594 3.25 33.75 3.58594 33.75 4 L 33.75 6.86719 C 33.75 7.28125 34.08594 7.61719 34.5 7.61719 z" stroke-linecap="round" />
</g>
<g transform="matrix(22.92 0 0 22.92 389.77 358.89)"  >
<path style="stroke: none; stroke-width: 1; stroke-dasharray: none; stroke-linecap: butt; stroke-dashoffset: 0; stroke-linejoin: miter; stroke-miterlimit: 4; fill: rgb(151 71 255); fill-rule: nonzero; opacity: 1;" vector-effect="non-scaling-stroke"  transform=" translate(-20.89, -9.09)" d="M 20.95801 10.70996 C 21.164620000000003 11.06935 21.62299 11.19187 21.98194 10.98633 C 22.341320000000003 10.780280000000001 22.464850000000002 10.321290000000001 22.2588 9.961920000000001 L 20.83155 7.478520000000001 C 20.6255 7.120120000000002 20.16602 6.997070000000002 19.80762 7.202150000000001 C 19.44824 7.408200000000002 19.32471 7.867190000000002 19.53076 8.226560000000001 L 20.95801 10.70996 z" stroke-linecap="round" />
</g>
<g transform="matrix(22.92 0 0 22.92 161.4 587.72)"  >
<path style="stroke: none; stroke-width: 1; stroke-dasharray: none; stroke-linecap: butt; stroke-dashoffset: 0; stroke-linejoin: miter; stroke-miterlimit: 4; fill: rgb(151 71 255); fill-rule: nonzero; opacity: 1;" vector-effect="non-scaling-stroke"  transform=" translate(-10.94, -19.1)" d="M 9.32275 19.02832 L 11.795409999999999 20.46191 C 12.14749 20.668499999999998 12.610599999999998 20.551479999999998 12.82031 20.18945 C 13.02783 19.83105 12.905759999999999 19.37207 12.54736 19.16504 L 10.0747 17.731450000000002 C 9.71874 17.522470000000002 9.25829 17.644540000000003 9.0498 18.00391 C 8.84229 18.3623 8.96436 18.82129 9.32275 19.02832 z" stroke-linecap="round" />
</g>
<g transform="matrix(22.92 0 0 22.92 78 900.73)"  >
<path style="stroke: none; stroke-width: 1; stroke-dasharray: none; stroke-linecap: butt; stroke-dashoffset: 0; stroke-linejoin: miter; stroke-miterlimit: 4; fill: rgb(151 71 255); fill-rule: nonzero; opacity: 1;" vector-effect="non-scaling-stroke"  transform=" translate(-7.29, -32.76)" d="M 9.4668 32.76074 C 9.4668 32.34668 9.130859999999998 32.01074 8.7168 32.01074 L 5.86182 32.01074 C 5.44776 32.01074 5.11182 32.34668 5.11182 32.76074 C 5.11182 33.1748 5.44776 33.51074 5.86182 33.51074 L 8.7168 33.51074 C 9.13086 33.51074 9.4668 33.1748 9.4668 32.76074 z" stroke-linecap="round" />
</g>
<g transform="matrix(22.92 0 0 22.92 161.4 1213.72)"  >
<path style="stroke: none; stroke-width: 1; stroke-dasharray: none; stroke-linecap: butt; stroke-dashoffset: 0; stroke-linejoin: miter; stroke-miterlimit: 4; fill: rgb(151 71 255); fill-rule: nonzero; opacity: 1;" vector-effect="non-scaling-stroke"  transform=" translate(-10.94, -46.42)" d="M 11.79541 45.05859 L 9.322750000000001 46.492180000000005 C 8.964350000000001 46.69921000000001 8.84228 47.15820000000001 9.049800000000001 47.51659000000001 C 9.25942 47.87846000000001 9.722480000000001 47.99573000000001 10.074700000000002 47.78905000000001 L 12.547360000000001 46.35546000000001 C 12.90576 46.148430000000005 13.027830000000002 45.689440000000005 12.820310000000001 45.331050000000005 C 12.6123 44.97168 12.15234 44.84863 11.79541 45.05859 z" stroke-linecap="round" />
</g>
<g transform="matrix(22.92 0 0 22.92 1240.98 1213.72)"  >
<path style="stroke: none; stroke-width: 1; stroke-dasharray: none; stroke-linecap: butt; stroke-dashoffset: 0; stroke-linejoin: miter; stroke-miterlimit: 4; fill: rgb(151 71 255); fill-rule: nonzero; opacity: 1;" vector-effect="non-scaling-stroke"  transform=" translate(-58.06, -46.42)" d="M 59.67725 46.49219 L 57.20459 45.0586 C 56.847660000000005 44.848639999999996 56.3877 44.971689999999995 56.17969 45.33106 C 55.97217 45.689460000000004 56.09424 46.14844 56.45264 46.355470000000004 L 58.9253 47.789060000000006 C 59.27739 47.99566000000001 59.74049 47.87863000000001 59.9502 47.516600000000004 C 60.15771 47.1582 60.03564 46.69922 59.67725 46.49219 z" stroke-linecap="round" />
</g>
<g transform="matrix(22.92 0 0 22.92 1324.34 900.73)"  >
<path style="stroke: none; stroke-width: 1; stroke-dasharray: none; stroke-linecap: butt; stroke-dashoffset: 0; stroke-linejoin: miter; stroke-miterlimit: 4; fill: rgb(151 71 255); fill-rule: nonzero; opacity: 1;" vector-effect="non-scaling-stroke"  transform=" translate(-61.71, -32.76)" d="M 63.13818 32.01074 L 60.2832 32.01074 C 59.86914 32.01074 59.5332 32.34668 59.5332 32.76074 C 59.5332 33.1748 59.86914 33.51074 60.2832 33.51074 L 63.13818 33.51074 C 63.55224 33.51074 63.88818 33.1748 63.88818 32.76074 C 63.88818 32.34668 63.55225 32.01074 63.13818 32.01074 z" stroke-linecap="round" />
</g>
<g transform="matrix(22.92 0 0 22.92 1240.98 587.72)"  >
<path style="stroke: none; stroke-width: 1; stroke-dasharray: none; stroke-linecap: butt; stroke-dashoffset: 0; stroke-linejoin: miter; stroke-miterlimit: 4; fill: rgb(151 71 255); fill-rule: nonzero; opacity: 1;" vector-effect="non-scaling-stroke"  transform=" translate(-58.06, -19.1)" d="M 57.20459 20.46191 L 59.67725 19.02832 C 60.035650000000004 18.82129 60.15772 18.3623 59.9502 18.00391 C 59.74268 17.64453 59.28125 17.522460000000002 58.9253 17.731450000000002 L 56.45264 19.16504 C 56.09424 19.37207 55.972170000000006 19.83106 56.17969 20.18945 C 56.38931 20.55132 56.85236 20.66859 57.20459 20.46191 z" stroke-linecap="round" />
</g>
<g transform="matrix(22.92 0 0 22.92 1012.57 358.89)"  >
<path style="stroke: none; stroke-width: 1; stroke-dasharray: none; stroke-linecap: butt; stroke-dashoffset: 0; stroke-linejoin: miter; stroke-miterlimit: 4; fill: rgb(151 71 255); fill-rule: nonzero; opacity: 1;" vector-effect="non-scaling-stroke"  transform=" translate(-48.11, -9.09)" d="M 47.01807 10.98633 C 47.37683 11.19176 47.83538 11.06935 48.042 10.70996 L 49.46925 8.226560000000001 C 49.6753 7.867180000000001 49.551770000000005 7.408200000000001 49.19239 7.202150000000001 C 48.834970000000006 6.997070000000002 48.37501 7.119140000000002 48.16846 7.478520000000001 L 46.74121 9.961920000000001 C 46.53516 10.32129 46.65869 10.78027 47.01807 10.98633 z" stroke-linecap="round" />
</g>
</svg>