<svg version="1.2" xmlns="http://www.w3.org/2000/svg" viewBox="0 0 999 231" width="500" height="116">
	<title>Dark Theme 1 2-svg</title>
	<defs>
		<clipPath clipPathUnits="userSpaceOnUse" id="cp1">
			<path d="m-236-369h1470v968h-1470z"/>
		</clipPath>
		<linearGradient id="g1" x2="1" gradientUnits="userSpaceOnUse" gradientTransform="matrix(0,11.289,-56.627,0,103.748,178.814)">
			<stop offset="0" stop-color="#c393ff"/>
			<stop offset="1" stop-color="#9644ff"/>
		</linearGradient>
		<linearGradient id="g2" x2="1" gradientUnits="userSpaceOnUse" gradientTransform="matrix(0,131.852,-70.939,0,65.793,42.002)">
			<stop offset="0" stop-color="#c393ff"/>
			<stop offset="1" stop-color="#9644ff"/>
		</linearGradient>
		<linearGradient id="g3" x2="1" gradientUnits="userSpaceOnUse" gradientTransform="matrix(0,8.607,-24.634,0,103.713,211.328)">
			<stop offset="0" stop-color="#c393ff"/>
			<stop offset="1" stop-color="#9644ff"/>
		</linearGradient>
		<linearGradient id="g4" x2="1" gradientUnits="userSpaceOnUse" gradientTransform="matrix(0,11.191,-46.662,0,103.751,195.099)">
			<stop offset="0" stop-color="#c393ff"/>
			<stop offset="1" stop-color="#9644ff"/>
		</linearGradient>
		<linearGradient id="g5" x2="1" gradientUnits="userSpaceOnUse" gradientTransform="matrix(0,.003,-0.119,0,77.997,190.071)">
			<stop offset="0" stop-color="#c393ff"/>
			<stop offset="1" stop-color="#9644ff"/>
		</linearGradient>
		<linearGradient id="g6" x2="1" gradientUnits="userSpaceOnUse" gradientTransform="matrix(0,3.145,-4.247,0,103.709,170.628)">
			<stop offset="0" stop-color="#c393ff"/>
			<stop offset="1" stop-color="#9644ff"/>
		</linearGradient>
		<linearGradient id="g7" x2="1" gradientUnits="userSpaceOnUse" gradientTransform="matrix(0,131.852,-70.92,0,141.668,42.002)">
			<stop offset="0" stop-color="#c393ff"/>
			<stop offset="1" stop-color="#9644ff"/>
		</linearGradient>
		<linearGradient id="g8" x2="1" gradientUnits="userSpaceOnUse" gradientTransform="matrix(0,14.685,-5.044,0,103.714,10)">
			<stop offset="0" stop-color="#c393ff"/>
			<stop offset="1" stop-color="#9644ff"/>
		</linearGradient>
		<linearGradient id="g9" x2="1" gradientUnits="userSpaceOnUse" gradientTransform="matrix(0,13.393,-9.844,0,58.035,22.948)">
			<stop offset="0" stop-color="#c393ff"/>
			<stop offset="1" stop-color="#9644ff"/>
		</linearGradient>
		<linearGradient id="g10" x2="1" gradientUnits="userSpaceOnUse" gradientTransform="matrix(0,9.866,-13.358,0,24.539,58.264)">
			<stop offset="0" stop-color="#c393ff"/>
			<stop offset="1" stop-color="#9644ff"/>
		</linearGradient>
		<linearGradient id="g11" x2="1" gradientUnits="userSpaceOnUse" gradientTransform="matrix(0,5.044,-14.644,0,12.322,106.591)">
			<stop offset="0" stop-color="#c393ff"/>
			<stop offset="1" stop-color="#9644ff"/>
		</linearGradient>
		<linearGradient id="g12" x2="1" gradientUnits="userSpaceOnUse" gradientTransform="matrix(0,9.868,-13.358,0,24.539,150.09)">
			<stop offset="0" stop-color="#c393ff"/>
			<stop offset="1" stop-color="#9644ff"/>
		</linearGradient>
		<linearGradient id="g13" x2="1" gradientUnits="userSpaceOnUse" gradientTransform="matrix(0,9.868,-13.358,0,182.889,150.09)">
			<stop offset="0" stop-color="#c393ff"/>
			<stop offset="1" stop-color="#9644ff"/>
		</linearGradient>
		<linearGradient id="g14" x2="1" gradientUnits="userSpaceOnUse" gradientTransform="matrix(0,5.044,-14.644,0,195.127,106.591)">
			<stop offset="0" stop-color="#c393ff"/>
			<stop offset="1" stop-color="#9644ff"/>
		</linearGradient>
		<linearGradient id="g15" x2="1" gradientUnits="userSpaceOnUse" gradientTransform="matrix(0,9.866,-13.357,0,182.889,58.264)">
			<stop offset="0" stop-color="#c393ff"/>
			<stop offset="1" stop-color="#9644ff"/>
		</linearGradient>
		<linearGradient id="g16" x2="1" gradientUnits="userSpaceOnUse" gradientTransform="matrix(0,13.394,-9.844,0,149.391,22.947)">
			<stop offset="0" stop-color="#c393ff"/>
			<stop offset="1" stop-color="#9644ff"/>
		</linearGradient>
		<linearGradient id="g17" x2="1" gradientUnits="userSpaceOnUse" gradientTransform="matrix(0,75.451,-735.704,0,624.498,34.097)">
			<stop offset="0" stop-color="#c393ff"/>
			<stop offset="1" stop-color="#9644ff"/>
		</linearGradient>
	</defs>
	<style>
		.s0 { fill: url(#g1) } 
		.s1 { fill: url(#g2) } 
		.s2 { fill: url(#g3) } 
		.s3 { fill: url(#g4) } 
		.s4 { fill: url(#g5) } 
		.s5 { fill: url(#g6) } 
		.s6 { fill: url(#g7) } 
		.s7 { fill: url(#g8) } 
		.s8 { fill: url(#g9) } 
		.s9 { fill: url(#g10) } 
		.s10 { fill: url(#g11) } 
		.s11 { fill: url(#g12) } 
		.s12 { fill: url(#g13) } 
		.s13 { fill: url(#g14) } 
		.s14 { fill: url(#g15) } 
		.s15 { fill: url(#g16) } 
		.s16 { fill: url(#g17) } 
		.s17 { fill: #f5f5f5 } 
	</style>
	<g id="Clip-Path" clip-path="url(#cp1)">
		<g id="Layer">
			<path id="Layer" class="s0" d="m129.8 178.9q-0.2 0-0.4-0.1c-1 0-5.2 0-51.3 0-0.2 0.1-0.3 0.1-0.4 0.1-1.3 0.2-2.3 1.3-2.3 2.6v5.9c0 1.5 1.2 2.7 2.6 2.7 2.3 0 42.8 0 51.4 0 1.5 0 2.7-1.2 2.7-2.7v-5.9c0-1.3-1-2.4-2.3-2.6z"/>
			<path id="Layer" fill-rule="evenodd" class="s1" d="m78 173.9c-4.4-2.8-7.1-7.7-7.1-13 0-1.4-1.1-2.5-2.5-2.5-1.4 0-2.5 1.1-2.5 2.5q0 1.3 0.1 2.4c-4.2-1.1-8.2-3.4-11.4-6.6-8.7-8.7-10.2-22.1-3.7-32.5 0.8-1.2 0.4-2.7-0.8-3.5-1.2-0.7-2.7-0.4-3.5 0.8-1.5 2.5-2.6 5-3.4 7.7-7.9-4.7-12.9-13.2-12.9-22.6 0-9.4 5-17.9 12.9-22.6q0.7 2.3 1.7 4.5c0.5 1 1.4 1.5 2.3 1.5q0.6 0 1.1-0.3c1.3-0.6 1.8-2.1 1.2-3.3q-1.9-3.9-2.3-8.3c-1-8 1.7-15.9 7.4-21.6 3.6-3.6 8-6 12.8-7.1-1 2.4-1.5 5.1-1.5 7.9 0 1.4 1.1 2.5 2.5 2.5 1.4 0 2.5-1.1 2.5-2.5 0-8.4 6.8-15.3 15.2-15.3 8.1 0 14.9 6.6 15.1 15.1q0 0.1 0 0.2v103.6q0 0.2 0.1 0.4c-0.1 5.1-2.9 9.9-7.2 12.6h-16q0 0-0.1 0zm-31.5-77.8c-0.7-1.2-2.3-1.5-3.5-0.8-3.8 2.4-5.9 7.3-4.9 11.7 0.3 1.2 1.3 2 2.5 2q0.3 0 0.5-0.1c1.4-0.3 2.3-1.7 2-3-0.6-2.3 0.6-5 2.6-6.3 1.2-0.7 1.5-2.3 0.8-3.5zm9.9-16.3c2.5 2.2 5.8-1.5 3.3-3.7-1.7-1.6-1.5-5 0.3-6.3 1.2-0.8 1.4-2.4 0.6-3.5-0.8-1.2-2.4-1.4-3.5-0.6-2.1 1.6-3.4 4.1-3.6 6.9-0.1 2.8 0.9 5.5 2.9 7.2zm8.5 33.9c-3.3-2.6-4.1-8-1.8-11.5 0.7-1.1 0.4-2.7-0.8-3.5-1.1-0.7-2.7-0.4-3.5 0.8-5.3 8.2 0.6 18.7 4.5 18.7 2.3 0 3.4-3 1.6-4.5zm28.5 39.9c-0.5-1.2-2-1.9-3.3-1.3-1.2 0.5-1.9 2-1.3 3.2 1 2.6-1.6 5.3-4.2 4.2-1.2-0.5-2.7 0.1-3.2 1.4-0.8 1.8 0.5 3.9 4.4 3.9 6.1 0 9.8-6.1 7.6-11.4zm-7-48.9c0.2-1.5 1.3-2.9 2.7-3.5 1.4-0.5 2-1.9 1.5-3.2-0.5-1.3-1.9-2-3.2-1.5-3.2 1.2-5.5 4.1-6 7.5-0.5 3.3 1 6.8 3.7 8.8 0.4 0.4 0.9 0.5 1.5 0.5 0.7 0 1.5-0.3 2-1 0.8-1.1 0.6-2.7-0.5-3.5-1.2-0.9-1.9-2.6-1.7-4.1zm-7 21.5c-3.6 7.6 4.4 15.3 11.8 11.8 1.2-0.6 1.8-2.1 1.2-3.4-0.6-1.2-2.1-1.7-3.4-1.2-3.2 1.6-6.5-1.8-5-5 0.6-1.3 0-2.8-1.2-3.4-1.3-0.6-2.8 0-3.4 1.2zm-1-66.9c0.6 1.3 2.1 1.8 3.4 1.2 1.6-0.7 3.7-0.7 5.3 0.2 1.6 0.9 2.7 2.7 2.9 4.5 0.1 1.3 1.2 2.3 2.5 2.3q0.1 0 0.3 0c1.4-0.2 2.4-1.4 2.2-2.8-0.3-3.4-2.4-6.6-5.4-8.3-3-1.8-6.8-1.9-10-0.4-1.2 0.6-1.8 2.1-1.2 3.3zm-5.2 26.8c3.5-1.5-0.6-4.7 2.1-7.6 2.6-3 6.2 0.8 7.4-2.7 0.5-1.3-0.2-2.8-1.6-3.2-3.3-1.1-7.1-0.2-9.5 2.4-4.3 4.7-2.3 12.8 1.6 11.1zm7.8 65.2c1.3-0.1 2.4-1.4 2.3-2.7-0.1-1.4-1.4-2.5-2.7-2.4-2.7 0.2-5.4-1-6.9-3.2-1.6-2.1-1.9-5.1-0.9-7.6 0.5-1.3-0.1-2.8-1.4-3.3-1.3-0.5-2.7 0.1-3.3 1.4-1.6 4-1.1 8.9 1.5 12.5 2.6 3.6 7.1 5.6 11.4 5.3z"/>
			<path id="Layer" class="s2" d="m91.4 214.7c0 2.9 2.3 5.2 5.2 5.2h14.2c2.9 0 5.2-2.3 5.2-5.2v-3.4h-24.6z"/>
			<path id="Layer" class="s3" d="m124.7 195.1h-41.9c-1.4 0.2-2.4 1.2-2.4 2.6v5.9c0 1.5 1.2 2.7 2.7 2.7 34-0.1 41.7 0 41.3 0 1.5 0 2.7-1.2 2.7-2.7v-5.9c0-1.4-1.1-2.4-2.4-2.6z"/>
			<path id="Layer" class="s4" d="m78.1 190.1h-0.1q-0.2 0 0.1 0z"/>
			<path id="Layer" class="s5" d="m101.6 173.8h4.2q-1.2-1.5-2.1-3.2-0.9 1.7-2.1 3.2z"/>
			<path id="Layer" fill-rule="evenodd" class="s6" d="m177.1 106.6c0 9.4-5 17.9-12.8 22.6-0.8-2.7-2-5.2-3.5-7.7-0.7-1.2-2.3-1.5-3.5-0.8-1.1 0.8-1.5 2.3-0.8 3.5 6.5 10.4 5 23.8-3.7 32.5-3.1 3.2-7.1 5.5-11.3 6.6q0.1-1.1 0.1-2.4c0-1.4-1.1-2.5-2.5-2.5-1.4 0-2.5 1.1-2.5 2.5 0 1.8-0.3 3.4-0.9 5q0 0 0 0c-1.1 3.3-3.3 6.1-6.3 8q0 0-0.1 0h-16c-4.3-2.8-7-7.5-7.1-12.7 0-0.1 0-103.9 0-103.9 0 0 0-0.2 0-0.3 0.1-8.3 6.9-15 15.2-15 8.4 0 15.2 6.9 15.2 15.3 0 1.4 1.1 2.5 2.5 2.5 1.4 0 2.5-1.1 2.5-2.5 0-2.8-0.5-5.5-1.6-7.9 4.8 1.1 9.3 3.5 12.8 7.1 5.7 5.7 8.4 13.6 7.5 21.7-0.3 2.8-1.1 5.6-2.3 8.2-0.6 1.2-0.1 2.7 1.2 3.3q0.5 0.3 1 0.3c1 0 1.9-0.5 2.3-1.5q1.1-2.2 1.7-4.5c7.9 4.7 12.9 13.2 12.9 22.6zm-50.8-34c-1.3 0.4-2 1.9-1.6 3.2 0.5 1.3 1.9 2 3.2 1.6 1.5-0.5 3.2-0.1 4.3 1 1 1.2 1.3 3 0.7 4.4-0.5 1.3 0 2.8 1.3 3.3q0.5 0.2 1 0.2c1 0 1.9-0.5 2.3-1.5 1.4-3.2 0.8-7.2-1.6-9.8-2.4-2.6-6.2-3.6-9.6-2.4zm-5.2 32.1c0.2 1.5-0.5 3.2-1.7 4.1-1.1 0.8-1.4 2.4-0.5 3.5 0.5 0.7 1.2 1 2 1 0.5 0 1-0.1 1.5-0.5 2.7-2 4.1-5.5 3.7-8.8-0.5-3.4-2.9-6.3-6-7.5-1.3-0.5-2.8 0.2-3.3 1.5-0.5 1.3 0.2 2.7 1.5 3.2 1.4 0.6 2.6 2 2.8 3.5zm-6 29.9c-0.6 1.3-0.1 2.8 1.2 3.4 1.2 0.6 2.4 0.8 3.7 0.8 2.3 0 4.6-0.9 6.3-2.5 2.6-2.6 3.3-6.8 1.7-10.1-0.5-1.2-2.1-1.8-3.3-1.2-1.3 0.6-1.8 2.1-1.2 3.4 0.6 1.4 0.3 3.2-0.8 4.3-1 1.1-2.9 1.4-4.2 0.7-1.3-0.6-2.8 0-3.4 1.2zm-0.4-67.1q0.1 0 0.2 0c1.3 0 2.4-1 2.5-2.3 0.2-1.8 1.4-3.6 3-4.5 1.5-0.9 3.6-0.9 5.3-0.2 1.2 0.6 2.8 0.1 3.3-1.2 0.6-1.2 0.1-2.7-1.2-3.3-3.1-1.5-6.9-1.4-9.9 0.4-3 1.7-5.1 4.9-5.5 8.3-0.1 1.4 0.9 2.6 2.3 2.8zm11.4 93.6c-0.5-1.3-2-1.9-3.3-1.4-1.1 0.5-2.6 0.2-3.4-0.7-0.9-0.8-1.2-2.3-0.7-3.5 0.5-1.2-0.1-2.7-1.4-3.2-1.3-0.6-2.8 0-3.3 1.3-1.2 3.1-0.5 6.7 1.8 9 1.5 1.6 3.7 2.4 5.9 2.4q1.5 0 3-0.6c1.3-0.5 1.9-2 1.4-3.3zm13.2-27.6c-0.5-1.3-2-1.9-3.3-1.4-1.3 0.5-1.9 2-1.3 3.3 1 2.5 0.6 5.4-0.9 7.6-1.6 2.2-4.3 3.4-6.9 3.2-1.4-0.1-2.6 1-2.7 2.4-0.1 1.3 0.9 2.6 2.3 2.7q0.5 0 0.9 0c4.1 0 8.1-2 10.5-5.3 2.5-3.6 3.1-8.5 1.4-12.5zm9.3-34c-0.8-1.2-2.3-1.5-3.5-0.8-1.2 0.8-1.5 2.4-0.7 3.5 2.3 3.5 1.4 8.9-1.8 11.5-1.1 0.9-1.3 2.5-0.4 3.6 0.5 0.6 1.3 0.9 2 0.9 0.5 0 1.1-0.2 1.6-0.6 5.3-4.3 6.5-12.4 2.8-18.1zm5.3-26.9c-0.1-2.8-1.4-5.3-3.5-6.9-1.1-0.8-2.7-0.6-3.5 0.6-0.9 1.1-0.6 2.7 0.5 3.5 0.9 0.6 1.4 1.8 1.5 3 0.1 1.3-0.4 2.5-1.2 3.3-1 0.9-1.1 2.5-0.2 3.5 0.5 0.6 1.2 0.9 1.9 0.9 0.6 0 1.2-0.3 1.7-0.7 1.9-1.7 3-4.4 2.8-7.2zm10.5 22.7c-1.1-0.7-2.7-0.4-3.4 0.8-0.8 1.2-0.4 2.8 0.8 3.5 2 1.3 3.1 4 2.6 6.3-0.3 1.3 0.5 2.7 1.9 3q0.3 0.1 0.6 0.1c1.1 0 2.2-0.8 2.4-2 1-4.4-1-9.3-4.9-11.7z"/>
			<path id="Layer" class="s7" d="m103.7 24.7c1.4 0 2.5-1.1 2.5-2.5v-9.7c0-1.4-1.1-2.5-2.5-2.5-1.4 0-2.5 1.1-2.5 2.5v9.7c0 1.4 1.1 2.5 2.5 2.5z"/>
			<path id="Layer" class="s8" d="m58.2 35.1c0.7 1.2 2.3 1.6 3.5 0.9 1.2-0.7 1.6-2.2 0.9-3.4l-4.8-8.4c-0.7-1.2-2.2-1.6-3.4-0.9-1.2 0.7-1.6 2.2-1 3.4z"/>
			<path id="Layer" class="s9" d="m19.1 63l8.3 4.8c1.2 0.7 2.8 0.3 3.5-0.9 0.7-1.2 0.3-2.8-0.9-3.5l-8.4-4.8c-1.2-0.7-2.7-0.3-3.4 0.9-0.7 1.2-0.3 2.8 0.9 3.5z"/>
			<path id="Layer" class="s10" d="m19.6 109.1c0-1.4-1.1-2.5-2.5-2.5h-9.6c-1.4 0-2.5 1.1-2.5 2.5 0 1.4 1.1 2.5 2.5 2.5h9.6c1.4 0 2.5-1.1 2.5-2.5z"/>
			<path id="Layer" class="s11" d="m27.4 150.4l-8.3 4.9c-1.2 0.7-1.6 2.2-0.9 3.4 0.7 1.2 2.3 1.6 3.4 0.9l8.4-4.8c1.2-0.7 1.6-2.2 0.9-3.4-0.7-1.3-2.3-1.7-3.5-1z"/>
			<path id="Layer" class="s12" d="m188.3 155.3l-8.3-4.9c-1.2-0.7-2.8-0.3-3.4 1-0.7 1.2-0.3 2.7 0.9 3.4l8.3 4.8c1.2 0.7 2.7 0.3 3.4-0.9 0.7-1.2 0.3-2.7-0.9-3.4z"/>
			<path id="Layer" class="s13" d="m199.9 106.6h-9.6c-1.4 0-2.5 1.1-2.5 2.5 0 1.4 1.1 2.5 2.5 2.5h9.6c1.4 0 2.5-1.1 2.5-2.5 0-1.4-1.1-2.5-2.5-2.5z"/>
			<path id="Layer" class="s14" d="m180 67.8l8.3-4.8c1.2-0.7 1.6-2.3 0.9-3.5-0.7-1.2-2.2-1.6-3.4-0.9l-8.3 4.8c-1.2 0.7-1.6 2.3-0.9 3.5 0.7 1.2 2.2 1.6 3.4 0.9z"/>
			<path id="Layer" class="s15" d="m145.7 36c1.2 0.7 2.8 0.3 3.5-0.9l4.8-8.4c0.7-1.2 0.3-2.7-1-3.4-1.2-0.7-2.7-0.3-3.4 0.9l-4.8 8.4c-0.7 1.2-0.3 2.7 0.9 3.4z"/>
			<path id="Layer" fill-rule="evenodd" class="s16" d="m256.6 109.5v-12l2.3-1.5v-48.3l-2.3-1.5v-12.1h36l10.1 10v55.4l-10.1 10zm15.9-13.5h14.5l2.1-2.1v-44.2l-2.1-2h-14.5zm41.3 13.6v-12.1l2.3-1.5v-48.3l-2.3-1.5v-12.1h39.2v15.9h-12l-1.5-2.3h-9.8v17.3h17.3v13.6h-17.3v17.4h9.8l1.5-2.3h12v15.9zm50.4 0v-12.1l2.3-1.5v-48.3l-2.3-1.5v-12.1h39.3v15.9h-12.1l-1.5-2.3h-9.8v17.3h17.3v13.6h-17.3v17.4h9.8l1.5-2.3h12.1v15.9zm50.3 0v-12.1l2.3-1.5v-48.3l-2.3-1.5v-12.1h34.5l10 10v29l-10 10.1h-18.6v12.8l2.2 1.5v12.1zm15.9-40h13l2.1-2.1v-17.8l-2.1-2h-13zm39.8 40v-12.1l2.3-1.5v-48.3l-2.3-1.5v-12.1h16.7l11.2 28.6 11.2-28.6h16.7v12.1l-2.2 1.5v48.3l2.2 1.5v12.1h-18.1v-12.1l2.3-1.5v-26.8l-6.7 17h-10.8l-6.7-17v26.8l2.3 1.5v12.1zm67 0v-12.1l2.2-1.5v-48.3l-2.2-1.5v-12.1h18.1v12.1l-2.3 1.5v48.3l2.3 1.5v12.1zm29.2 0v-12.1l2.3-1.5v-48.3l-2.3-1.5v-12.1h16.7l15.8 40.3v-26.7l-2.3-1.5v-12.1h18.1v12.1l-2.2 1.5v61.9h-14.5l-15.7-40.3v26.7l2.2 1.5v12.1zm59.5 0v-12.1l2.2-1.5v-48.3l-2.2-1.5v-12.1h36l10 10.1v55.4l-10 10zm15.8-13.6h14.6l2-2.1v-44.1l-2-2.1h-14.6zm74.9 13.6l-9.7-62.1-1.9-1.3v-12.1h13.5l6.8 43.5 6.8-43.5h12.8l6.8 43.5 6.8-43.5h13.6v12.1l-1.9 1.3-9.7 62.1h-17.5l-4.4-28.6-4.5 28.6zm74.5 0l-10.1-10v-55.4l10.1-10.1h24.4l10.1 10.1v55.4l-10.1 10zm5.6-13.6h13.3l2.1-2v-44.2l-2.1-2.1h-13.3l-2 2.1v44.2zm67.5 13.5v-12l2-1.3-3.8-14.6h-9.8v14.4l2.2 1.5v12h-18.1v-12l2.3-1.5v-48.3l-2.3-1.5v-12.1h34.5l10 10v27.5l-5.8 5.9 4.7 18 2.6 2v12zm-11.6-41.5h13.1l2-2v-16.3l-2-2h-13.1zm40.4 41.5v-12.1l2.2-1.5v-48.3l-2.2-1.5v-12.1h18.1v12.1l-2.3 1.5v21.1l14.3-18.2v-2.9l-2.2-1.5v-12.1h18.1v12.1l-2.3 1.5v7.7l-9.8 12.5 9.8 12.1v16l2.3 1.5v12.1h-18.1v-12.1l2.2-1.5v-11.2l-4.8-6-9.5 12v5.2l2.3 1.5v12.1zm67.2 0l-10.1-10.1v-14.1h13.6v8.5l2.1 2.1h11l2-2.1v-13.2l-2-2.1h-16.6l-10.1-10v-24.5l10.1-10h22.2l10 10v14.2h-13.6v-8.6l-2-2h-11l-2.1 2v13.3l2.1 2.1h16.6l10 10v24.4l-10 10.1z"/>
			<path id="Layer" fill-rule="evenodd" class="s17" d="m260.2 197.6l-4.7-4.7v-26l4.7-4.7h11.1l4.7 4.7v6.6h-6.3v-4l-1-1h-5.9l-0.9 1v20.8l0.9 0.9h5.9l1-0.9v-4h6.3v6.6l-4.7 4.7zm34.6 0l-4.7-4.7v-26l4.7-4.7h11.5l4.7 4.7v26l-4.7 4.7zm2.7-6.4h6.2l1-0.9v-20.8l-1-1h-6.2l-1 1v20.8zm27.6 6.4v-5.7l1.1-0.7v-22.7l-1.1-0.7v-5.7h16.9l4.7 4.7v26l-4.7 4.8zm7.5-6.4h6.8l1-1v-20.8l-1-0.9h-6.8zm28.2 6.4v-5.7l1-0.7v-22.7l-1-0.7v-5.7h18.4v7.4h-5.6l-0.8-1h-4.6v8.1h8.2v6.4h-8.2v8.2h4.6l0.8-1.1h5.6v7.5zm32.5 0v-6.4h6.4v6.4zm65.3 0l-4.7-4.8v-26l4.7-4.7h11.2l4.7 4.7v6.6h-6.4v-4l-1-0.9h-5.9l-0.9 0.9v20.8l0.9 1h5.9l1-1v-4h6.4v6.6l-4.7 4.8zm29.8 0v-5.7l1.1-0.7v-22.7l-1.1-0.7v-5.7h16.2l4.8 4.7v12.9l-2.8 2.8 2.2 8.5 1.3 0.9v5.7h-8.7v-5.7l0.9-0.6-1.8-6.9h-4.6v6.8l1 0.7v5.7zm7.5-19.5h6.1l1-1v-7.7l-1-0.9h-6.1zm27.7 19.5v-5.7l1.1-0.7v-22.7l-1.1-0.7v-5.7h18.5v7.5h-5.7l-0.7-1.1h-4.6v8.2h8.2v6.3h-8.2v8.2h4.6l0.7-1.1h5.7v7.5zm31.4 0v-5.7l1.1-0.7 4.6-22.7-1-0.7v-5.7h13.4v5.7l-1 0.7 4.6 22.7 1 0.7v5.7h-6.2l-1.6-7.8h-7l-1.6 7.8zm9.2-14.2h4.4l-2.2-10.9zm32.9 14.2v-5.6l1.1-0.7v-22.7h-1.1l-0.7 1h-5.7v-7.4h21.3v7.4h-5.7l-0.7-1h-1.1v22.7l1.1 0.7v5.6zm28.9 0v-5.6l1.1-0.7v-22.7l-1.1-0.8v-5.6h18.5v7.4h-5.7l-0.7-1h-4.6v8.1h8.1v6.4h-8.1v8.2h4.6l0.7-1.1h5.7v7.4zm32.4 0v-6.3h6.4v6.3zm60.6 0v-5.6l1.1-0.7v-22.7l-1.1-0.8v-5.6h8.6v5.6l-1.1 0.8v22.7l1.1 0.7v5.6zm22.5 0v-5.6l1.1-0.7v-22.7l-1.1-0.8v-5.6h7.8l7.4 18.9v-12.5l-1-0.8v-5.6h8.5v5.6l-1.1 0.8v29h-6.8l-7.4-18.9v12.6l1.1 0.7v5.6zm36.7 0v-5.6l1.1-0.7v-22.7l-1.1-0.8v-5.6h7.9l7.4 18.9v-12.5l-1.1-0.8v-5.6h8.5v5.6l-1 0.8v29h-6.8l-7.4-18.9v12.6l1 0.7v5.6zm41.5 0l-4.7-4.7v-26l4.7-4.7h11.5l4.7 4.7v26l-4.7 4.7zm2.6-6.3h6.2l1-1v-20.8l-1-0.9h-6.2l-0.9 0.9v20.8zm33.5 6.4l-5.9-29.1-1.1-0.7v-5.7h6.3l5.1 25 5.1-25h6.2v5.7l-1 0.7-5.9 29.1zm27.8 0v-5.7l1-0.7 4.6-22.7-1-0.7v-5.7h13.5v5.7l-1.1 0.7 4.6 22.7 1.1 0.7v5.7h-6.3l-1.6-7.8h-7l-1.6 7.8zm9.2-14.2h4.4l-2.2-10.9zm32.9 14.2v-5.6l1.1-0.8v-22.7h-1.1l-0.7 1.1h-5.7v-7.4h21.3v7.4h-5.7l-0.7-1.1h-1v22.7l1 0.8v5.6zm28.9 0v-5.6l1.1-0.8v-22.7l-1.1-0.7v-5.6h18.5v7.4h-5.7l-0.7-1.1h-4.6v8.2h8.1v6.4h-8.1v8.1h4.6l0.7-1h5.7v7.4zm32.5 0v-6.4h6.3v6.4z"/>
		</g>
	</g>
</svg>