<?xml version="1.0" encoding="UTF-8"?>
<svg xmlns="http://www.w3.org/2000/svg" width="53" height="38" viewBox="0 0 53 38" fill="none">
  <path fill-rule="evenodd" clip-rule="evenodd" d="M23.4257 31.7084H33.9709C33.9975 33.5336 34.7482 35.1648 36.7871 36.4536H20.6128C22.2403 35.2715 23.4332 33.835 23.4257 31.7084ZM18.0794 13.6301V35.6892C18.0794 36.1094 17.7352 36.4536 17.3154 36.4536H1.77217C1.352 36.4536 1.00781 36.1094 1.00781 35.6892V13.6301C1.00781 13.2103 1.352 12.8661 1.77217 12.8661H17.3133C17.7352 12.8661 18.0794 13.2099 18.0794 13.6301ZM9.54275 33.9127C10.026 33.9127 10.4188 34.305 10.4188 34.7883C10.4188 35.2715 10.026 35.6643 9.54275 35.6643C9.05948 35.6643 8.66671 35.2715 8.66671 34.7883C8.66879 34.305 9.05948 33.9127 9.54275 33.9127ZM17.0431 14.2296V33.1358H2.15164V14.2296H17.0431ZM43.5808 19.3447H50.1997C50.7033 19.3447 51.1629 19.5502 51.4905 19.8803C51.8226 20.2128 52.0252 20.6699 52.0252 21.1711V35.1516C52.0252 35.6556 51.8201 36.1152 51.4905 36.4424C51.1575 36.7753 50.7008 36.9775 50.1997 36.9775H43.5808C43.0768 36.9775 42.6171 36.7724 42.29 36.4424C41.9574 36.1102 41.7548 35.6531 41.7548 35.1516V21.1686C41.7548 20.6645 41.9599 20.2049 42.29 19.8774C42.6221 19.5452 43.0768 19.3447 43.5808 19.3447ZM42.3838 34.4412H51.3937V21.3363H42.3838V34.4412ZM46.8877 35.0125C47.3008 35.0125 47.6384 35.345 47.6384 35.7631C47.6384 36.1766 47.3058 36.5142 46.8877 36.5142C46.4746 36.5142 46.1367 36.1816 46.1367 35.7631C46.1367 35.3504 46.4692 35.0125 46.8877 35.0125ZM8.27353 0.987305H48.717C49.3572 0.987305 49.8795 1.50919 49.8795 2.14982V15.3236H48.2288V3.58968C48.2288 3.02544 47.7679 2.56044 47.1995 2.56044H9.78688C9.22265 2.56044 8.75764 3.02129 8.75764 3.58968V10.3065H7.11102V2.14982C7.11102 1.50919 7.63332 0.987305 8.27353 0.987305ZM20.5339 26.0715H39.4157V30.1042H20.5339V26.0715Z" fill="#25245D" stroke="#25245D" stroke-width="1.2573"></path>
</svg>
