<?xml version="1.0" encoding="UTF-8"?>
<svg xmlns="http://www.w3.org/2000/svg" width="64" height="64" viewBox="0 0 64 64" fill="none">
  <g clip-path="url(#clip0_9761_2809)">
    <path d="M32.044 17.502C23.9896 17.502 17.459 24.0326 17.459 32.087C17.459 40.1414 23.9896 46.672 32.044 46.672C40.0984 46.672 46.6291 40.1414 46.6291 32.087C46.5855 24.0326 40.0549 17.502 32.044 17.502Z" fill="#3880FF"></path>
    <path d="M52.9425 18.8078C56.6214 18.8078 59.6037 15.8255 59.6037 12.1466C59.6037 8.46768 56.6214 5.48535 52.9425 5.48535C49.2636 5.48535 46.2812 8.46768 46.2812 12.1466C46.2812 15.8255 49.2636 18.8078 52.9425 18.8078Z" fill="#3880FF"></path>
    <path d="M61.1265 18.8082L60.8653 18.1986L60.4299 18.7211C59.3415 19.9401 57.9483 20.898 56.4245 21.4639L55.9891 21.6381L56.1633 22.0735C57.5129 25.2517 58.166 28.6476 58.166 32.0871C58.166 46.498 46.4544 58.2531 32 58.2531C17.5456 58.2531 5.87755 46.498 5.87755 32.0871C5.87755 17.6762 17.5891 5.92108 32.0435 5.92108C35.9619 5.92108 39.7061 6.79183 43.2327 8.44626L43.6245 8.62041L43.7986 8.18503C44.4517 6.66123 45.4531 5.3551 46.7592 4.3102L47.2816 3.87483L46.6721 3.57007C42.1007 1.21905 37.181 0 32 0C14.3673 0 0 14.3673 0 32C0 49.6327 14.3673 64 32 64C49.6327 64 64 49.6327 64 32C64 27.4721 63.0422 23.0313 61.1265 18.8082Z" fill="#3880FF"></path>
  </g>
  <defs>
    <clipPath id="clip0_9761_2809">
      <rect width="64" height="64" fill="white"></rect>
    </clipPath>
  </defs>
</svg>
